<?xml version="1.0" encoding="utf-8"?>
<!-- Generator: Adobe Illustrator 26.0.3, SVG Export Plug-In . SVG Version: 6.00 Build 0)  -->
<svg version="1.0" id="Layer_1" xmlns="http://www.w3.org/2000/svg" xmlns:xlink="http://www.w3.org/1999/xlink" x="0px" y="0px"
	 viewBox="0 0 1098 856.7" style="enable-background:new 0 0 1098 856.7;" xml:space="preserve">
<style type="text/css">
	.st0{fill:#F3E517;}
	.st1{clip-path:url(#SVGID_00000019639083800032415200000005445583876839268756_);}
	.st2{fill:#FF7901;}
	.st3{fill:#FF0101;}
	.st4{clip-path:url(#SVGID_00000104674655685180477720000006417257233739348656_);}
	.st5{fill:#0000CC;}
</style>
<path id="path3178" class="st0" d="M532.7,304.6c-13.2,33-25.9,87.6-41.2,24.8c-11.5-44.6-36.1,28-53.9,40.4
	c-36,27.4-56,66-72,107.4c-42.4-36-26.5,21.8-29.1,50.1c2.3,42.4-4.6,88.8,3.4,128.7c33.6,29.3,58,75.6,108,75
	c34.2,11.9,30-39.9,61,3.1c28.6,39.2,46.2,16.3,64.9-3c27.2,41.7,35.6-49.9,58.6-8.8c35.5,13.8,67.4,20.4,73.2-26.5
	c7.3-37,71-37.8,56-82.3c-2.1-46.2,4.1-95.7-3-139.8c-24.1-18.8-42.7-62.3-70.2-66.1c-34,16.5-20.9-56.2-34.9-77.6
	c-4.6-56.2-16.6-30.8-29.7,7.8c-7.2,55.5-37.7,29-53.2-7.3C556.6,318.6,540.9,257.2,532.7,304.6z"/>
<g id="g3305">
	<g>
		<defs>
			<polygon id="SVGID_1_" points="353.7,601.8 365.2,613.3 382.4,670.8 388.1,601.8 405.4,688 405.4,578.9 416.9,607.6 434.1,688 
				434.1,578.9 445.6,590.3 462.8,688 480.1,555.9 518.1,704.8 520.3,613.3 531.8,578.9 543.2,722.5 577.7,578.9 589.2,699.5 
				617.9,573.1 646.7,711 652.4,607.6 669.6,573.1 675.4,705.2 704.1,578.9 721.3,636.3 727.1,584.6 744.3,619.1 744.3,509.9 
				727.1,555.9 721.3,458.2 709.8,532.9 698.4,509.9 692.6,429.5 663.9,538.6 658.1,515.7 640.9,343.3 623.7,492.7 612.2,538.6 
				589.2,383.5 566.2,515.7 554.7,550.1 549,312.9 514.5,578.9 480.1,337.6 462.8,544.4 451.3,521.4 439.8,383.5 434.1,521.4 
				416.9,561.6 405.4,423.8 393.9,532.9 376.7,504.2 376.7,584.6 353.7,498.4 			"/>
		</defs>
		<clipPath id="SVGID_00000065793345179043722570000012631311468043432620_">
			<use xlink:href="#SVGID_1_"  style="overflow:visible;"/>
		</clipPath>
		<g style="clip-path:url(#SVGID_00000065793345179043722570000012631311468043432620_);">
			<g id="g3122">
				<path id="path3120" class="st2" d="M342.2,728.2V308.9h413.6v419.3H342.2z"/>
				<path id="path3118" class="st3" d="M347.9,521.4l45.9,28.7l17.2-51.7l28.7,34.5l34.5-57.5l11.5,68.9l11.5-46l17.2,34.5l5.8-34.5
					c0,0,17.2,46,17.2,40.2c0-5.8,23-86.2,23-86.2l23,74.7l34.5-68.9l17.2,74.7l28.7-51.7l17.2,51.7l28.7-28.7l34.5,34.5v46
					l-23,17.2l-34.5-11.5l-23-11.5l-5.7,57.5l-11.5-57.5l-23,51.7l-34.5-51.7l-11.5,51.7l-23-34.5L526,670.8l-17.2-86.2l-34.4,17.2
					l-23-34.5l-11.5,57.5l-23-28.7l-23,28.7l-11.5-17.2l-34.4,5.7V521.4z"/>
			</g>
		</g>
	</g>
</g>
<g>
	<defs>
		<path id="SVGID_00000039107799915657557250000006733826997794811809_" d="M549,101.3c-76.2,0-145.7,23.8-196.9,63.7
			s-84.6,97.1-84.6,160.7v23c-50.9,25.8-86.2,93.4-86.2,172.7c0,101.5,57.7,183.8,132.1,183.8V325.7c0-47.6,24.6-91.4,67-124.4
			s102-54,168.5-54s126.2,21,168.6,54s67,76.8,67,124.4v379.5c74.4,0,132.1-82.4,132.1-183.8c0-79.3-35.3-146.9-86.2-172.7v-23
			c0-63.6-33.3-120.7-84.6-160.7S625.2,101.3,549,101.3z M330.7,343.3v361.9c11.5,0,23-5.8,28.7-17.2V354.8
			C353.7,349.1,342.2,343.3,330.7,343.3z M767.3,343.3c-11.5,0-23,5.8-28.7,11.5V688c5.8,11.5,17.2,17.2,28.7,17.2V343.3z"/>
	</defs>
	<clipPath id="SVGID_00000158739793833680727580000000090102376136256660_">
		<use xlink:href="#SVGID_00000039107799915657557250000006733826997794811809_"  style="overflow:visible;"/>
	</clipPath>
	<g style="clip-path:url(#SVGID_00000158739793833680727580000000090102376136256660_);">
		<g id="g2792">
			<path id="path2127" class="st5" d="M549,101.3c-76.2,0-145.7,23.8-196.9,63.7s-84.6,97.1-84.6,160.7v23
				c-50.9,25.8-86.2,93.4-86.2,172.7c0,101.5,57.7,183.8,132.1,183.8V325.7c0-47.6,24.6-91.4,67-124.4s102-54,168.5-54
				s126.2,21,168.6,54s67,76.8,67,124.4v379.5c74.4,0,132.1-82.4,132.1-183.8c0-79.3-35.3-146.9-86.2-172.7v-23
				c0-63.6-33.3-120.7-84.6-160.7S625.2,101.3,549,101.3z M330.7,343.3v361.9c11.5,0,23-5.8,28.7-17.2V354.8
				C353.7,349.1,342.2,343.3,330.7,343.3z M767.3,343.3c-11.5,0-23,5.8-28.7,11.5V688c5.8,11.5,17.2,17.2,28.7,17.2V343.3z"/>
		</g>
	</g>
</g>
</svg>
